My Friend Irma is a comedy film directed by George Marshall and is most notable as 

the film debut of comedy team Dean Martin and Jerry Lewis. The film was released 

on August 16, 1949 by Paramount and is based upon the CBS radio series My Friend 

Irma that first aired in 1947.


This film is in Black and White 4:3.

 
http://en.wikipedia.org/wiki/My_Friend_Irma_(film)


PLEASE READ!

This video is a large 3.41 GiB .MPG file I did this to help save the quality of 

this movie. I will upload a torrent for a smaller AVI copy once I have converted 

it. However the video quality will lower.

Issues with this video is co-channel bleed-over streaking caused by scrolling text 

on neighboring television channel.


This video was recorded from the cable television Pay-TV service CIMEMAX which is 

owned by Home Box Office. It was recorded on VHS video tape in 1986 and transfered 

to DVD in 2HR recording mode using a Magnavox ZV457MG9 DVD recorder.


Nero 9's Nero Vision was used to transfer this video to .MPG format.


Format                                   : MPEG-PS
File size                                : 3.41 GiB
Duration                                 : 1h 42mn
Overall bit rate mode                    : Variable
Overall bit rate                         : 4 747 Kbps

Video
ID                                       : 224 (0xE0)
Format                                   : MPEG Video
Format version                           : Version 2
Format profile                           : Main@Main
Format settings, BVOP                    : Yes
Format settings, Matrix                  : Default
Format settings, GOP                     : M=3, N=15
Duration                                 : 1h 42mn
Bit rate mode                            : Variable
Bit rate                                 : 4 396 Kbps
Maximum bit rate                         : 6 125 Kbps
Width                                    : 720 pixels
Height                                   : 480 pixels
Display aspect ratio                     : 4:3
Frame rate                               : 29.970 fps
Standard                                 : NTSC
Color space                              : YUV
Chroma subsampling                       : 4:2:0
Bit depth                                : 8 bits
Scan type                                : Interlaced
Scan order                               : Top Field First
Compression mode                         : Lossy
Bits/(Pixel*Frame)                       : 0.424
Time code of first frame                 : 00:00:00:00
Time code source                         : Group of pictures header
Stream size                              : 3.16 GiB (93%)
Color primaries                          : BT.601 NTSC
Transfer characteristics                 : BT.601
Matrix coefficients                      : BT.601

Audio
ID                                       : 189 (0xBD)-128 (0x80)
Format                                   : AC-3
Format/Info                              : Audio Coding 3
Mode extension                           : CM (complete main)
Format settings, Endianness              : Big
Muxing mode                              : DVD-Video
Duration                                 : 1h 42mn
Bit rate mode                            : Constant
Bit rate                                 : 256 Kbps
Channel(s)                               : 2 channels
Channel positions                        : Front: L R
Sampling rate                            : 48.0 KHz
Bit depth                                : 16 bits
Compression mode                         : Lossy
Delay relative to video                  : -67ms
Stream size                              : 188 MiB (5%)


If you are having any issues with this video playing or long leeching times please 

watch for the SMALLER .AVI copy which will be added soon. 

Enjoy!